<svg xmlns="http://www.w3.org/2000/svg" viewBox="0 0 1530.4 227.58"><defs><style>.cls-1{fill:#f5f5f5;}</style></defs><g id="Layer_4" data-name="Layer 4"><path class="cls-1" d="M122.08,166.79h-5.86c-43.67-2.74-63.39-57.13-31-86.75,30.82-28.7,81.27-8.05,83.9,33.8v5.87A50.47,50.47,0,0,1,122.08,166.79Zm-5-43.34c-13.75,1.11-25.09,9.07-30.46,21.83a1.25,1.25,0,0,0,.29,1.61c10.4,10.67,23,15.37,37.81,13.64a43,43,0,0,0,26.85-13.8.93.93,0,0,0,.24-1.19c-5.72-13.26-16.23-20.71-30.57-22.09,21.92-3.54,19.59-34.73-2-35.2C97.66,88.55,95,119.83,117.06,123.45Z"/><path class="cls-1" d="M241.11,104.84c0-25.08,31.85-35.09,46-14.28,22.64-30.16,69.54,5.75,31.07,40.9-9.06,8.92-19.37,16.16-30.31,22.56a1.34,1.34,0,0,1-1.55,0C269.49,143.67,243.09,126.08,241.11,104.84Z"/><path class="cls-1" d="M502,116.86c0,6.29,0,12.57,0,18.85a1.72,1.72,0,0,1-.48,1.1q-6.8,6.85-13.63,13.68c-4.23,4.23-8.48,8.45-12.7,12.7a2.52,2.52,0,0,1-2,.81c-5.26,0-10.52,0-15.78,0l-15.06,0c-2.05,0-4.1.06-6.14,0a2.48,2.48,0,0,1-1.58-.61q-9.39-9.3-18.71-18.67c-2.6-2.59-5.21-5.17-7.77-7.8a2.19,2.19,0,0,1-.57-1.4c0-12.43,0-24.86,0-37.29a2,2,0,0,1,.63-1.5Q420.88,84,433.52,71.27a5.36,5.36,0,0,1,4.23-1.75c11.86.09,23.72,0,35.58,0a2,2,0,0,1,1.58.64q13.17,13.2,26.36,26.35a2.34,2.34,0,0,1,.72,1.84c0,4.5,0,9,0,13.52v5Zm-47.18-42h0c-5.54,0-11.07,0-16.61,0a2.18,2.18,0,0,0-1.4.59c-2.73,2.67-5.41,5.39-8.12,8.09q-7.59,7.59-15.17,15.19a2.08,2.08,0,0,0-.63,1.3q0,16.69,0,33.4a2.14,2.14,0,0,0,.55,1.32c1.13,1.21,2.34,2.34,3.51,3.51q9.85,9.87,19.69,19.74a2.24,2.24,0,0,0,1.73.75c10.38,0,20.76-.05,31.14,0,1.83,0,3.37-.17,4.44-1.83a6.82,6.82,0,0,1,.9-.88Q485.4,145.56,496,135a2.41,2.41,0,0,0,.81-1.89c0-11,0-22,0-32.94a2,2,0,0,0-.51-1.26c-1.14-1.2-2.34-2.34-3.51-3.51q-9.95-10-19.91-19.9a2.34,2.34,0,0,0-1.48-.61C465.82,74.84,460.32,74.86,454.81,74.86Z"/><path class="cls-1" d="M450.15,126.89V92c0-1.29,0-1.29,1.34-1.29,2.37,0,4.75,0,7.12,0,.68,0,.87.23.87.89q0,17.33,0,34.66c0,.44,0,.85-.63.85-2.8,0-5.6,0-8.4,0C450.4,127,450.35,127,450.15,126.89Z"/><path class="cls-1" d="M450.15,137.64c0-1.5,0-3,0-4.51,0-.55.2-.74.74-.74,2.62,0,5.23,0,7.85,0,.55,0,.75.21.74.75q0,4.56,0,9.12c0,.55-.2.72-.74.72q-3.93,0-7.85,0c-.55,0-.74-.19-.74-.73C450.17,140.71,450.15,139.18,450.15,137.64Z"/><path class="cls-1" d="M770.36,142.93a26.1,26.1,0,0,1,0-52.2,26.1,26.1,0,0,1,0,52.2Z"/><path class="cls-1" d="M805.93,119.49v-5.57c.25,0,.46-.06.68-.06,5.35,0,10.7,0,16.06,0a2.64,2.64,0,0,1,2.72,2.74,2.67,2.67,0,0,1-2.63,2.92c-5.46,0-10.91,0-16.36,0C806.27,119.53,806.15,119.51,805.93,119.49Z"/><path class="cls-1" d="M735,114.19v5.48h-2.5c-4.77,0-9.54,0-14.31,0a2.67,2.67,0,0,1-2.66-1.87,2.83,2.83,0,0,1,1-3.26,4.66,4.66,0,0,1,1.61-.41,4.73,4.73,0,0,1,.84,0h15C734.29,114.15,734.62,114.17,735,114.19Z"/><path class="cls-1" d="M767.63,81.32V75.74c0-3.73,0-7.46,0-11.19a2.6,2.6,0,0,1,2-2.72A2.82,2.82,0,0,1,773,63.51a2.38,2.38,0,0,1,.18.88c0,5.54,0,11.07,0,16.61,0,.07,0,.15,0,.32Z"/><path class="cls-1" d="M767.68,152.15h5.43c0,.31.06.6.06.89V168.8a2.78,2.78,0,1,1-5.54,0q0-8,0-15.92C767.64,152.66,767.66,152.43,767.68,152.15Z"/><path class="cls-1" d="M793.79,143.94l3.74-3.81c1.38,1.36,2.77,2.72,4.14,4.1q3.81,3.84,7.58,7.7a2.31,2.31,0,0,1,.09,3.49c-1.25,1.25-2.69,1.38-3.83.26-2-1.91-3.89-3.86-5.83-5.8l-5.59-5.6C794,144.16,793.86,144,793.79,143.94Z"/><path class="cls-1" d="M797.43,93.26l-3.71-3.75c.47-.44,1-.93,1.52-1.45,3.3-3.3,6.58-6.62,9.93-9.88a4,4,0,0,1,2-1,2.51,2.51,0,0,1,2,4.32c-2.59,2.61-5.2,5.21-7.8,7.81Z"/><path class="cls-1" d="M743.43,140.26,747.1,144c-.93.91-1.87,1.82-2.8,2.75-3,3-5.91,5.92-8.88,8.87a2.51,2.51,0,0,1-3.66.14,2.45,2.45,0,0,1-.12-3.71c3.84-3.9,7.73-7.76,11.6-11.63A1.18,1.18,0,0,1,743.43,140.26Z"/><path class="cls-1" d="M746.89,89.75l-3.74,3.69c-.84-.88-1.74-1.83-2.66-2.75-3-3-6-6-9-9a2.45,2.45,0,0,1-.49-3,2.55,2.55,0,0,1,4.05-.76C739,81.86,742.93,85.79,746.89,89.75Z"/><path class="cls-1" d="M1120.8,116.38c.89,13.85-7.88,27.09-21.26,32.63-14.34,5.94-30,2.08-40.37-10-9.5-11-10.71-27.62-3-40.57,6.67-11.18,21.25-18.65,32.5-16.27-6.86,6.3-10.65,13.69-9.41,23a23.69,23.69,0,0,0,8.33,15.39C1094.92,126.8,1108.75,129.71,1120.8,116.38Z"/><path class="cls-1" d="M1238.16,81.76h29.76c2,0,2.33.36,2.19,2.34-.45,6.29-.93,12.58-1.39,18.87s-.9,12.27-1.36,18.41c-.47,6.35-.85,12.71-1.48,19a12.8,12.8,0,0,1-12.07,11.24c-5.32.17-10.65.06-16,.07q-5.37,0-10.75,0c-7.64,0-13.13-5.37-13.59-13-.42-7.12-1-14.22-1.57-21.34-.24-3.23-.43-6.47-.77-9.7A43.58,43.58,0,0,0,1204.57,89a4.76,4.76,0,0,1-.83-3.73,4.34,4.34,0,0,1,4-3.44c1.16-.05,2.32,0,3.49,0Zm11.17,55h3.86c1.31,0,2.63,0,3.94,0a1.49,1.49,0,0,0,1.53-1.51,1.46,1.46,0,0,0-1.59-1.41h-15.24a3.37,3.37,0,0,0-.55,0,1.35,1.35,0,0,0-1.28,1.33,1.34,1.34,0,0,0,1.08,1.49,4.19,4.19,0,0,0,1,.09Zm0-16.1c2.5,0,5,0,7.52,0,1.12,0,1.76-.51,1.8-1.39s-.64-1.54-1.77-1.54h-15c-1.12,0-1.83.62-1.81,1.51s.67,1.42,1.78,1.42C1244.29,120.65,1246.8,120.64,1249.31,120.64Zm.06-19h-7.52c-1.16,0-1.84.54-1.85,1.45s.69,1.49,1.83,1.49h15c1.15,0,1.83-.56,1.84-1.47s-.67-1.47-1.82-1.47Zm3.92,24.08c-1.23,0-2.45,0-3.67,0s-1.73.56-1.74,1.46.64,1.47,1.72,1.48h7.33c1.06,0,1.72-.61,1.7-1.5a1.5,1.5,0,0,0-1.68-1.44C1255.73,125.74,1254.51,125.75,1253.29,125.75Zm-.12-13.11c1.26,0,2.51,0,3.76,0,1.08,0,1.72-.62,1.7-1.51s-.64-1.41-1.68-1.42c-2.44,0-4.88,0-7.33,0-1.1,0-1.74.55-1.74,1.44s.63,1.47,1.72,1.49S1252,112.64,1253.17,112.64Z"/><path class="cls-1" d="M1273,81.82a10.35,10.35,0,0,1,4.53.81c5,1.89,6.41,6.73,6.43,12.07q0,14.68,0,29.39a4.6,4.6,0,0,1-4.29,4.75c-2.35.19-2.52-1.56-2.88-4.09-.72-5.12-1.39-10.25-2.08-15.37-.42-3.16-.82-6.31-1.3-9.46a10.86,10.86,0,0,0-.8-1.92,4,4,0,0,1-.44-1.49c.24-3.72.56-7.44.81-11.17C1273.06,84.19,1273,83,1273,81.82Z"/><path class="cls-1" d="M1356.58,105c.22-1.47.39-3,.68-4.41a35.21,35.21,0,0,1,13.19-21.32,35.39,35.39,0,0,1,39.66-2.62,35.24,35.24,0,0,1,14.83,16.73,34.51,34.51,0,0,1,2.56,18.72,35.27,35.27,0,0,1-7.07,17c-.16.21-.3.43-.49.71.24.26.47.51.71.75L1445.13,155c1.61,1.61,2,3.51.81,5a10.57,10.57,0,0,1-2.33,1.74H1442a26.16,26.16,0,0,1-2.83-2.13q-11.94-11.85-23.82-23.78c-.26-.26-.53-.5-.8-.76-.45.32-.79.59-1.15.84-10.33,7.34-21.57,9.21-33.47,4.81s-19.4-13.19-22.49-25.58c-.44-1.78-.6-3.62-.89-5.43Zm35.66,30.53a28.12,28.12,0,1,0-28.14-28.1A28.15,28.15,0,0,0,1392.24,135.51Z"/><path class="cls-1" d="M917,71.76h22.51V79.3h-7.52c0,2.47,0,4.84,0,7.2,0,.19.44.49.7.52a36.65,36.65,0,0,1,12.52,3.83c1.57.83,3.08,1.78,4.76,2.75l5.51-5.52,5.25,5.22-5.24,5.21.49.58c7.95,9.08,11.11,19.6,9.16,31.51a37.21,37.21,0,0,1-28.84,30.3c-1.68.37-3.4.57-5.1.86h-6c-1.44-.23-2.89-.42-4.32-.7C896,156.18,883,128,895.55,105.94c1.49-2.63,3.41-5,5.26-7.69l-5.08-5,5.35-5.31,5.63,5.65A36.9,36.9,0,0,1,923.91,87c.53-.06.57-.37.56-.79,0-1.58,0-3.16,0-4.74V79.24H917Zm41.27,52.54a30,30,0,1,0-30.17,29.94A30.08,30.08,0,0,0,958.22,124.3Z"/><path class="cls-1" d="M905.75,124.27h22.42V101.94c5.32-1.39,14.91,3.8,19,10.21a22.49,22.49,0,1,1-41.43,12.12Z"/><path class="cls-1" d="M637,116.69q0,22.5,0,45a7.15,7.15,0,0,1-.42,2.61,3.6,3.6,0,0,1-6.17,1.15,8.45,8.45,0,0,1-1.77-3.72,82.33,82.33,0,0,1-1.08-18.22c.23-7.87.64-15.74,1-23.61.09-1.88-.24-2.53-1.91-3.32a11.24,11.24,0,0,1-6.11-7.07c-1.37-4.2-1.34-8.5-1.17-12.82A51.49,51.49,0,0,1,623.24,78a28.86,28.86,0,0,1,6.19-9.24,8.84,8.84,0,0,1,1.78-1.38c2.74-1.56,5.5-.1,5.82,3,.05.55,0,1.1,0,1.64v44.61Z"/><path class="cls-1" d="M612.63,81.21c0,3.53,0,7.06,0,10.58a11.73,11.73,0,0,1-6,10.92,5.41,5.41,0,0,0-2.64,4,60.56,60.56,0,0,0-.47,15.27c1,12.22,2.2,24.42,3.29,36.63a12,12,0,0,1,0,2.87c-.55,3.6-3.16,5.51-7.09,5.27a5.85,5.85,0,0,1-5.73-6.07c0-2.69.41-5.38.66-8.08.72-7.63,1.57-15.26,2.14-22.91.41-5.56.54-11.15.62-16.73a43.75,43.75,0,0,0-.64-6.53,4.8,4.8,0,0,0-2.46-3.6,11.76,11.76,0,0,1-6.15-11.17l.69-22.6a5.69,5.69,0,0,1,.08-.82,1.58,1.58,0,0,1,1.7-1.43,1.6,1.6,0,0,1,1.61,1.54,13.32,13.32,0,0,1,0,1.55v20a8.85,8.85,0,0,0,0,1,1.5,1.5,0,0,0,1.47,1.45,1.47,1.47,0,0,0,1.63-1.12,4.49,4.49,0,0,0,.14-1.32q0-10.34,0-20.66a8.49,8.49,0,0,1,0-1.13,1.59,1.59,0,0,1,3.09-.28,4.83,4.83,0,0,1,.14,1.42c0,6.86,0,13.71,0,20.56a10.59,10.59,0,0,0,0,1.13,1.59,1.59,0,0,0,3.14.13,6.56,6.56,0,0,0,.08-1.33V69.21c0-1.69.52-2.46,1.64-2.45s1.62.78,1.62,2.48V89.8a8.48,8.48,0,0,0,0,1.13,1.6,1.6,0,0,0,3.2-.09,8.85,8.85,0,0,0,0-1q0-10.23,0-20.45c0-.31,0-.62,0-.93a1.63,1.63,0,0,1,1.6-1.67,1.59,1.59,0,0,1,1.75,1.61c.12,1.57.21,3.15.23,4.73,0,2.7,0,5.41,0,8.11Z"/></g></svg>