<svg xmlns="http://www.w3.org/2000/svg" viewBox="0 0 1654.95 356.34"><defs><style>.cls-1{fill:#3b4a4d;}.cls-2{fill:#f5de9f;}.cls-3{fill:#fff;}.cls-4{fill:#528082;}</style></defs><g id="Layer_6" data-name="Layer 6"><path class="cls-1" d="M493.2,226.68l21-91.08c2.16-9.59,3.14-17.23.59-23.11h18.8c4.31,0,6.46,1.18,7.64,5.49l25.07,102.43,61.11-101.65c2.35-4.5,5.48-6.27,10.57-6.27h20.57c-4.9,4.9-7.84,13.52-10.19,23.11l-20.76,89.9c-2.35,10-3.33,19.2-.78,24.09H595.83c3.53-4.7,6.86-14.3,9-24.09l22.33-97.14-53.27,89.5a216.2,216.2,0,0,0-14.5,29.77c-5.87,0-8.42-1.56-10.18-7.63l-30-110.86-2,9.79c-9,45.44-3.92,90.69-5.88,104-.78,4.7-4.51,7.84-11.56,7.84a104.24,104.24,0,0,1-16.64-1.37C487.72,244.89,490.85,237.25,493.2,226.68Z"/><path class="cls-1" d="M652.47,236.27l16.45-71.09c1.77-7.84.59-11.17-3.91-12.34a36.57,36.57,0,0,1,16.64-4.5c8.23,0,11.17,4.89,8.23,18.21L674,234.9c-1.37,6.27-.4,9.6,4.5,9.6a23.44,23.44,0,0,0,3.13-.39,27.22,27.22,0,0,1-18.8,7.44C653.84,251.55,649.93,246.65,652.47,236.27ZM676,120.92c1-8.23,8.23-14.11,16.85-14.11,6.66,0,11.75,5.49,10.77,11.76-1,8.22-8.23,14.1-16.65,14.1C680.09,132.67,675,127.38,676,120.92Z"/><path class="cls-1" d="M694.38,226.68a27.69,27.69,0,0,1,1.18-7.64,42.31,42.31,0,0,1,9.79-1.37c5.09,0,9,1.37,9,5.09,0,3.13-2.35,8-2.35,12.73,0,8.62,7.44,13.32,15.67,13.32,12.92,0,24.09-11.75,24.09-23.11,0-23.5-43.48-19.59-43.48-47.4,0-19.58,20.76-30.55,41.72-30.55,17.43,0,32.7,7.24,32.7,22.13a22,22,0,0,1-1,6.85,52.41,52.41,0,0,1-10.57,1.18c-5.09,0-8.42-1.37-8.42-4.51,0-2.93,2.35-7.63,2.35-11.75,0-7.24-7.25-11-14.69-11-12.15,0-21.16,10.38-21.16,20.56,0,22.52,44.66,18,44.66,47.4,0,21.15-22.92,33.29-45.24,33.29C708.29,251.94,694.38,242.35,694.38,226.68Z"/><path class="cls-1" d="M787.41,212.77c0-28.2,21-65,59.15-65,20.37,0,32.71,11.16,33.1,31.92-6.86,16.65-22.33,26.64-41.13,26.64-10,0-20.76-3.53-27.42-8.62a64.59,64.59,0,0,0-1.37,12.93c0,15.86,7,26.83,23.5,26.83,14.89,0,28.2-9,35.25-22.52a9.77,9.77,0,0,1,.4,6.85c-3.33,15.87-24.09,30.16-46,30.16C799.75,251.94,787.41,234.71,787.41,212.77ZM830.11,201c19.19,0,29.57-21.35,29.57-34.67,0-9.59-5.48-15.66-14.49-15.66-16.85,0-29,24.28-33.49,44.65A33.65,33.65,0,0,0,830.11,201Z"/><path class="cls-1" d="M922.16,212.77c0-28.2,21-65,59.14-65,20.37,0,32.71,11.16,33.11,31.92-6.86,16.65-22.33,26.64-41.13,26.64-10,0-20.77-3.53-27.42-8.62a64.66,64.66,0,0,0-1.38,12.93c0,15.86,7.06,26.83,23.51,26.83,14.88,0,28.2-9,35.25-22.52a9.78,9.78,0,0,1,.39,6.85c-3.33,15.87-24.09,30.16-46,30.16C934.5,251.94,922.16,234.71,922.16,212.77ZM964.85,201c19.2,0,29.58-21.35,29.58-34.67,0-9.59-5.49-15.66-14.5-15.66-16.84,0-29,24.28-33.49,44.65A33.68,33.68,0,0,0,964.85,201Z"/><path class="cls-1" d="M1079.39,236.27l13.32-57.19a47.26,47.26,0,0,0,1.17-9.59c0-6.86-3.13-10.19-9.2-10.19-12.34,0-26,15.87-37.61,44.46l-7.64,33.49c-1.37,5.29-2.15,10.58-1.17,12.34-4.31,1-10.19,1.18-15.47,1.18-5.1,0-7.25-2.74-5.68-9.21l17.43-76.38c2-7.84.78-11.17-3.72-12.34a36.57,36.57,0,0,1,16.64-4.5c8.23,0,11.17,5.09,8.43,18L1051.58,185c12.73-23.89,28.2-37.21,44.46-37.21,12.53,0,19,7.83,19,21.15a54.15,54.15,0,0,1-1.37,11.75l-12.53,54.25c-1.57,6.27-.59,9.6,4.31,9.6a22.62,22.62,0,0,0,3.33-.39,27.24,27.24,0,0,1-18.81,7.44C1081,251.55,1077,246.65,1079.39,236.27Z"/><path class="cls-1" d="M1169.48,225.5l21-89.9c2.35-10.38,2.93-17.82.58-23.11h44.27c31.53,0,48.18,12,45.63,35.65-2.35,27.22-26.83,45.63-62.28,45.83l-19.19.2-7.25,31.33c-2.35,11-3.13,19-.79,24.09h-32.12C1164.19,244.5,1167.13,236.47,1169.48,225.5Zm45.63-35.06c23.51,0,38.39-19.39,40.74-42.3,2.35-21.35-7.64-32.32-26.44-32.32h-11.75l-17.24,74C1204.93,190.25,1210.8,190.44,1215.11,190.44Z"/><path class="cls-1" d="M1275.24,236.27l27.61-119.08c1.77-7.83.59-11.16-3.91-12.33a37.79,37.79,0,0,1,16.64-4.51c8.23,0,11.36,4.9,8.23,18L1297,234.71c-1.37,6.26-.59,9.79,4.31,9.79a20.07,20.07,0,0,0,3.13-.39,26.78,26.78,0,0,1-18.6,7.44C1276.81,251.55,1272.89,246.65,1275.24,236.27Z"/><path class="cls-1" d="M1379.24,240.58l.19-.58c-7.83,7.44-18.21,11.94-28.4,11.94-19,0-30.94-13.12-30.94-33.29,0-38.39,25.66-70.9,56.6-70.9,9.6,0,16.45,3.72,21.54,9.79,1.38-6.07,5.29-8.81,10.19-8.81a91.17,91.17,0,0,1,15.08,1.37c-2,1.76-3.72,6.85-4.9,12.34l-16.84,72.46c-1.57,6.27-.39,9.6,4.31,9.6a22.62,22.62,0,0,0,3.33-.39,27.23,27.23,0,0,1-18.8,7.44C1383.15,251.55,1377.67,247.63,1379.24,240.58Zm-21.74,6.07c11,0,22.72-11.55,25.46-22.71l14.1-61.7a22.58,22.58,0,0,0-17.82-8.42c-19.78,0-37.8,45.24-37.8,71.29C1341.44,239.21,1347.12,246.65,1357.5,246.65Z"/><path class="cls-1" d="M1430.22,221l15.66-66.2-15.86-.59c1-3.33,2.35-4.11,6.46-4.11h10.58l2.35-10.19c1.57-6.85.59-10.38-3.33-12.34a33.67,33.67,0,0,1,16.06-4.5c8.23,0,11.36,4.9,8.23,18.21l-2.16,8.82h22.52c0,4.31-2.74,6.27-8,6.07l-15.66-.59-16.65,70.9c-2.35,10.58.59,15.67,7.44,15.67,4.7,0,10.38-2.35,13.12-6.86,0,10.19-12.73,16.65-24.67,16.65C1432.57,251.94,1425.32,242,1430.22,221Z"/><path class="cls-1" d="M1479,212.77c0-28.2,21-65,59.15-65,20.37,0,32.71,11.16,33.1,31.92-6.85,16.65-22.33,26.64-41.13,26.64-10,0-20.76-3.53-27.42-8.62a64.59,64.59,0,0,0-1.37,12.93c0,15.86,7,26.83,23.5,26.83,14.89,0,28.21-9,35.26-22.52a9.84,9.84,0,0,1,.39,6.85c-3.33,15.87-24.09,30.16-46,30.16C1491.32,251.94,1479,234.71,1479,212.77Zm42.7-11.75c19.19,0,29.57-21.35,29.57-34.67,0-9.59-5.48-15.66-14.49-15.66-16.84,0-29,24.28-33.49,44.65A33.65,33.65,0,0,0,1521.68,201Z"/><path class="cls-2" d="M340.24,182.16a1.7,1.7,0,0,1-.21,2c.4,1.1-.13,2.16.36,3.07-1.1,3.17-.2,6.8-.69,9.89-1.43,8.38-4.35,16.9-6,24.81-5.64,10.38-10.27,21.59-16.93,30.7-.9,2.26-4.2,4.21-5,6.91-1.57.3-1.28,1.84-2.06,2.71-.65.36-1.82.9-1,1.61-3.62,1.83-6,6.07-8.46,8.73-2.2,2.09-7.11,6.11-8,7.59-2,1.84-4.67,3.82-6.63,5.48.31,1.46-2.14-.11-2,1.62-.11.21-.77.38-.88.57-3.25,2.34-8.56,4.91-11.15,7.17-4.53,1.89-9.18,5.24-14.34,6.54-.59-.36-.93,0-1.15.45-.5.95-2.19,1-3.19,1.13-4.09,1.09-8.6,2.19-12.66,3.38-.79,1.49-3-.27-3.67,1.16-.05.42-.75.09-.93,0-1.09-1.33-1.72.72-2.32.49-.91-1-2,.71-3,.25-1.72,0-3.26.75-4.79,1.07-1.24-.68-2.18,0-3.45.16-.33,0-.6-.25-.69.32-.33.71-1.16-.64-1.45.21-1.78-.38-4,.27-6,.06a31.59,31.59,0,0,0-5.21-.07c-1-.73-2.79,0-4.05-.51-.62-.09-.57.88-1.17.17a16.48,16.48,0,0,0-7.69-1.71c-13.66-2-29.23-6.23-41-12.71a97.81,97.81,0,0,1-32-21.4c-11.48-13.08-21-28.44-28.51-44.09-7.5-18.3-9.35-40.54-12-59.58,1.53-11.11,3.51-23.23,6.65-33.92,1.34-5.09,4.45-9.57,6.66-14.56,2.35-4.77,4.58-9.74,7.85-14.38,9.36-13.35,20.3-24.6,34.48-32.93,11.09-7.84,24.4-13.89,37.18-18.18,1.08.49,1.21-1.47,2.08-.84,1.44,0,4-.47,5-1.55,2-.35,4.76-.12,6.67-1.72,1.47.65,2.44-.9,3.72-.55.83.42,1.36-1,2.24-.33.84.39.87-1,1.63-.52,2.7.5,5.16-1.05,7.81-.73.77.68,1.3-.67,2-.15a1.83,1.83,0,0,0,2,0c.56-.49,2.21.46,2.08-.66,2.85,0,5.72.47,8.26-.44,7.71.55,14.62.56,22.33,1.39,3.55-.55,7.34,2,11.35,2.45,10.12,1.23,19.13,7.88,28.69,11.94,2.15.34,3.28,2.38,5.2,3.31,1.25,0,1.87,1.46,2.8,2.08.43.49.87-.3,1.2.41,4.6,3.5,9.24,8.13,13.83,11.41.84.2.5,1.3.78,1.23.44,0,1.3-.08.88.6-.21.34,0,.54.28.54,3.11,2.88,6.14,7.49,8.36,11.24,3.21,3.64,4.93,8,7.43,12.22a5.16,5.16,0,0,1,2.13,4,5.33,5.33,0,0,1,1.43,3.19c-.22,1,1.42,1.22,1.1,2.52-.79,1.62,1.76,1.78,1.33,3.14.11,1.72,1.57,3.51,2.16,5,1.14.17,0,1.54.94,2a.3.3,0,0,1,.08.44c-.39.78.77,1.47.43,2.15,0,.57.63,1.19,1.12,1.61,1.05,8.19,4.69,17,5.42,25.25-.27.82.69,1.39.17,2.17-.68.89.9,1,.44,1.72-.77,1.09.57,1.94.37,2.84-.45,1.43.43,2.52,0,3.76.87.88-.43,2.19.51,2.94a5.94,5.94,0,0,0-.09,2.57C340.24,175.77,339.62,179.8,340.24,182.16Zm-219-94.94a.1.1,0,0,0-.07-.15C120.84,87,121.08,87.51,121.22,87.22Z"/><path class="cls-1" d="M340.24,182.16a1.7,1.7,0,0,1-.21,2c.4,1.1-.13,2.16.36,3.07-1.1,3.17-.2,6.8-.69,9.89-1.43,8.38-4.35,16.9-6,24.81-5.64,10.38-10.27,21.59-16.93,30.7-.9,2.26-4.2,4.21-5,6.91-1.57.3-1.28,1.84-2.06,2.71-.65.36-1.82.9-1,1.61-3.62,1.83-6,6.07-8.46,8.73-2.2,2.09-7.11,6.11-8,7.59-2,1.84-4.67,3.82-6.63,5.48.31,1.46-2.14-.11-2,1.62-.11.21-.77.38-.88.57-3.25,2.34-8.56,4.91-11.15,7.17-4.53,1.89-9.18,5.24-14.34,6.54-.59-.36-.93,0-1.15.45-.5.95-2.19,1-3.19,1.13-4.09,1.09-8.6,2.19-12.66,3.38-.79,1.49-3-.27-3.67,1.16-.05.42-.75.09-.93,0-1.09-1.33-1.72.72-2.32.49-.91-1-2,.71-3,.25-1.72,0-3.26.75-4.79,1.07-1.24-.68-2.18,0-3.45.16-.33,0-.6-.25-.69.32-.33.71-1.16-.64-1.45.21-1.78-.38-4,.27-6,.06a31.59,31.59,0,0,0-5.21-.07c-1-.73-2.79,0-4.05-.51-.62-.09-.57.88-1.17.17a16.48,16.48,0,0,0-7.69-1.71c-13.66-2-29.23-6.23-41-12.71a97.81,97.81,0,0,1-32-21.4c-11.48-13.08-21-28.44-28.51-44.09-7.5-18.3-9.35-40.54-12-59.58,1.53-11.11,3.51-23.23,6.65-33.92,1.34-5.09,4.45-9.57,6.66-14.56,2.35-4.77,4.58-9.74,7.85-14.38,9.36-13.35,20.3-24.6,34.48-32.93,11.09-7.84,24.4-13.89,37.18-18.18,1.08.49,1.21-1.47,2.08-.84,1.44,0,4-.47,5-1.55,2-.35,4.76-.12,6.67-1.72,1.47.65,2.44-.9,3.72-.55.83.42,1.36-1,2.24-.33.84.39.87-1,1.63-.52,2.7.5,5.16-1.05,7.81-.73.77.68,1.3-.67,2-.15a1.83,1.83,0,0,0,2,0c.56-.49,2.21.46,2.08-.66,2.85,0,5.72.47,8.26-.44,7.71.55,14.62.56,22.33,1.39,3.55-.55,7.34,2,11.35,2.45,10.12,1.23,19.13,7.88,28.69,11.94,2.15.34,3.28,2.38,5.2,3.31,1.25,0,1.87,1.46,2.8,2.08.43.49.87-.3,1.2.41,4.6,3.5,9.24,8.13,13.83,11.41.84.2.5,1.3.78,1.23.44,0,1.3-.08.88.6-.21.34,0,.54.28.54,3.11,2.88,6.14,7.49,8.36,11.24,3.21,3.64,4.93,8,7.43,12.22a5.16,5.16,0,0,1,2.13,4,5.33,5.33,0,0,1,1.43,3.19c-.22,1,1.42,1.22,1.1,2.52-.79,1.62,1.76,1.78,1.33,3.14.11,1.72,1.57,3.51,2.16,5,1.14.17,0,1.54.94,2a.3.3,0,0,1,.08.44c-.39.78.77,1.47.43,2.15,0,.57.63,1.19,1.12,1.61,1.05,8.19,4.69,17,5.42,25.25-.27.82.69,1.39.17,2.17-.68.89.9,1,.44,1.72-.77,1.09.57,1.94.37,2.84-.45,1.43.43,2.52,0,3.76.87.88-.43,2.19.51,2.94a5.94,5.94,0,0,0-.09,2.57C340.24,175.77,339.62,179.8,340.24,182.16Zm-6.33-23.64c-1-.55.61-1.41-.27-1.93-.32-.17-.26-.41-.08-.65.89-1.4-1.26-.36-.16-2.29-.7-1.16-.31-2.53-.83-3.74-.46-.41-1-.47-.63-1.22a14.52,14.52,0,0,0-1.12-5.22.51.51,0,0,1-.25-.7c.44-.91-.42-1.35-.62-2.05.22-.94-.09-2.71-.83-3.17-.48-.05-.43-.25-.34-.56-.06-.49.79-1.24,0-1.31a.32.32,0,0,1-.17-.54c.83-.75-.49-1.42-.18-2.44-3.34-6.33-5.46-13.77-8.86-20.5-.42-.4.06-1.07-.75-1.19-.16,0-.13-.37,0-.51.46-1-1-1.62-1.35-2.27-1.35-2.73-3.28-5.09-4.7-7.55-.15-2.38-2.75-3.35-3.59-5.31-2.11-3.78-4.41-6.05-6.88-9.07,0-1.61-2-1-2.2-2.1a1.4,1.4,0,0,0-1.1-1.11c-1.41-.51-1.76-3-3.31-3.06-.56.56-1,.11-1.32-.24-8.17-8.94-19.14-13.42-29.84-18.42-2.91-1.61-7.32-4.76-11.06-4.24-1-1.09-2.34.53-3.33-.94-2.08.17-.76-1.07-2.84-.38-4.84-2.42-10.42-1.48-15.28-2.05a22.62,22.62,0,0,1-5.82-.46c-1.87.59-4.44.42-6.62.32-5.21-.65-10.27,1.18-16.06.65-1.55,1-1.72.15-3.29.58s-3.14.21-4.58,1c-2.33-.79-3.71,1-5.63.66-6.82,1.9-12.66,3.25-19.37,5.94A48.77,48.77,0,0,0,159,67.67c-1.25-.49-1.57.83-2.6.8-.35,0-.68.06-.57.56A55,55,0,0,0,142,76.94c0,.83-1.18.68-1.51,1.11,0,.51-.42.42-.72.44-1.79-.11-2.25,1.83-3.77,2.22-1.21.1-.62,2-2.13,1.91-2,.57-3,2.33-4.9,3.26-2.63,2.14-4.59,4.28-7.21,6.24.13,1.54-1.93,1.15-2.76,2.48a109.52,109.52,0,0,0-27.73,53.59c.1,1.79-1.18,3.2-.8,5.05-.68,1.35,0,2.87-.45,4-1,.66.64,1.54-.06,2.34.52.59-.73,1.31-.28,1.93.32.41.17.62,0,1-1.11,7.67-.73,15.17-.73,23.08a91.4,91.4,0,0,1,.84,9.3c1.08.92.25,2.68,1,3.59,1.28.33-.23,2.3.47,2.93,1.11.44-.55,1.32.15,1.91.74,2.12.78,4.78,1.71,6.81,0,1.34,1.2,2.21,1,3.59-.56.76.44,1,.44,1.73.48,1,.41,2.51,1.08,3.29,2.44,6.47,5.28,14.11,8.37,21,2.57,2.9,3.34,7,6.48,9.88,2,1.89,2.06,5.06,3.72,6.9,11.43,15.64,26.65,29.7,45.7,36.93,28.21,13.16,65.88,15.1,94.75,2.14,4.67-2.23,10.8-3.29,15.76-6.27,4.15-3.46,8.34-5.93,12.77-8.93,8.43-5.21,16-12.77,22-20.27.2-1.22,2.24-1.79,2.75-3.06-.11-1.39,3.07-1.73,2.08-3,1.79-2,4.17-4.7,5.16-7.51a22.43,22.43,0,0,0,4.17-6.89,15.08,15.08,0,0,0,3.91-7.39c-.14-1,1.34-.83,1-1.76,1.14-2.48,3.16-4.68,4-7.47,1.08-2.6,2.38-5.42,3.34-8.2a42.65,42.65,0,0,1,2.72-11c.16-2.1.52-4,.77-5.93,1.05-.64-.25-1.88.38-2.7.46-.74,1.12-2.43,0-2.73,0-3.66.94-7,.5-10.39,1-1.56-.69-3.28-.17-4.91.25-1.15-.77-2-.22-3-.9-.48.28-2.07-.37-2.88C334.29,166.84,334.71,162.16,333.91,158.52ZM121.22,87.22a.1.1,0,0,0-.07-.15C120.84,87,121.08,87.51,121.22,87.22Z"/><polygon class="cls-1" points="340.24 182.16 340.26 182.14 340.24 182.16 340.24 182.16"/><path class="cls-3" d="M292.21,280.15c-.12,0-.27-.06-.28-.19a.21.21,0,0,1,.23-.22c.14,0,.17.15.18.27Z"/><path class="cls-3" d="M121.22,87.22l-.11.12s-.1-.08-.11-.13,0-.16.15-.14A.1.1,0,0,1,121.22,87.22Z"/><path class="cls-4" d="M333.91,158.52c0-.09.11-.16.19,0s-.06.09-.09.14Z"/><path class="cls-4" d="M89.23,187.32c-.06.07-.12.15-.2,0s.06-.09.09-.14Z"/><path class="cls-4" d="M97.89,224.29s-.12.09-.14.08-.06-.14,0-.21A.8.8,0,0,0,97.89,224.29Z"/><path class="cls-3" d="M304.92,83.13c-.07.07-.14.12-.21,0s.06-.09.09-.14Z"/><path class="cls-1" d="M211.91,171c-.07-1.93.36-3.79.31-5.71,0-.7-.46-1.41,0-2.08-.45-.77.31-1.6-.12-2.37.41-1.2,0-2.46.29-3.68.36-1-.24-2,.07-3-.17-3,.62-6,.27-9a37.25,37.25,0,0,0-.74-6.7c-.15-4-.24-7.94-.17-11.95.11-6.13.15-12.5,1.54-18.41a1.26,1.26,0,0,0,.23-.93c-.17-1.93.85-3.69,1.39-5.52.35-.38.77-2.13,1.21-1.93-.79,9.46-1.06,19.66,2.14,29,3.77,7.73,7,15.75,10.64,23.56,1.29,3.39,2.22,7.07,3.95,10.37,1.05,2.68,1.7,5.55,2.84,8.18.54.69.07,1.83.76,2.45.59,2.22.78,4.87,1.3,7.16.94,2.35.26,4.84,1.06,7.18.21.47-.31,1,.2,1.47,1,19.19.5,39.21-7.65,56.84-1.77,2.27-3.19,4.94-5.91,6.24a2.48,2.48,0,0,0-1.06.68c-.93,1-2.45.58-3.43,1.6-.33.39-.75.2-1.14.19-.59.53-1.22.16-1.84.11s-1.11.26-1.72.24c-1.49.16-2.23-1-3.46-1.53-3.24-1.36-5.7-4.56-7-7.77-.46-1.51-1.61-2.78-1.89-4.37a31.62,31.62,0,0,1-.81-6.95c-.18-10.6,3.21-21.28,5.21-31.77C209.78,192.11,210.92,181.53,211.91,171Z"/><path class="cls-1" d="M240,267.62c.64-3.1,1.29-6.39,3.06-9-.16-.61.66-.89.51-1.5a.32.32,0,0,1,.1-.26c1.41-1,1.53-2.94,2.92-3.86,1-.44,1-1.74,1.62-2.56.14-.36.63-.62.25-1.09a37.21,37.21,0,0,0,6-9.49c1-1.86,2.51-3.78,2.74-5.92a.89.89,0,0,1,.26-.67c.79-.78.74-1.91,1.29-2.82,1.2-2.4,1.34-5.19,2.63-7.58.55-1.21.38-2.6,1.08-3.74.76-2.21,1.06-4.52,1.6-6.74-.13-1,.87-2.09.39-3.07-.08-.06-.16-.16-.07-.23.88-.75.42-1.72.44-2.61,0-.73.92-1.07.63-1.84-.23-2.15.31-4.23.41-6.35.3-.51-.21-1,0-1.52A2.12,2.12,0,0,0,266,195a52.32,52.32,0,0,1,.33-6.36c.19-.71-.6-1.2-.08-1.83.29-.69-.64-1.38-.21-2.15s-.36-1.33-.14-2a.36.36,0,0,0-.14-.51c-.51-.55.49-.78-.16-1.57.1-2.22-.82-4.3-1-6.48-.11-.63.13-1.32-.52-1.79a13,13,0,0,0-1.25-4.5,16.93,16.93,0,0,0-1.45-5.09c-.53-1.11-.55-2.53-1.48-3.4.15-1.12-.88-1.82-1-2.9-.31-1.56-1.49-2.88-2.07-4.38-1.21-1.49-1.59-3.62-2.89-4.9a.19.19,0,0,1-.11-.15c.2-1-1-1.41-1.09-2.36-.48-1.75-1.65-3.31-2.49-5-.35-.68-.54-1.47-1.26-1.93-.15-.1-.09-.29,0-.45a27.16,27.16,0,0,0-2.25-3.87c-.41-.9-.53-1.95-1.38-2.6a.52.52,0,0,1-.18-.35c-1.06-2.42-2.79-4.54-4.18-6.8-.44-1-1.14-1.81-1.57-2.75.11-.83-.51-1.28-.93-1.85-.69-.85-1-2-1.78-2.76a.39.39,0,0,1-.16-.23,8.1,8.1,0,0,0-1.42-3.34c-.71-.37-.32-1.3-.93-1.82-.93-.93-.72-2.3-1.23-3.41-.93-2.08-1.34-4.33-2.22-6.4.32-1.86-.6-3.84,0-5.64.62-.93.27-2,.44-3,.39-1.14.56-2.33.84-3.49a.57.57,0,0,1,1.13.08c-.17,1.7,0,3.47-.19,5.2.68,3,1.31,6.27,3.32,8.7,1.13,1.83,1.33,4.09,2.89,5.64.76.76.48,2.15,1.45,2.78.35.22.3.63.47,1,1.15,1.25,1.21,3.15,2.72,4.09,2.18,4.15,5.06,8,7.28,12.1,2.87,3.82,4.47,8.37,7.3,12.18,1.35,2.35,2.47,4.86,4.34,6.86.2.25.5.43.46.82,0,.22.14.36.29.49.58.4.68,1.25,1.19,1.65.69.19.84.84,1,1.33,1.34,3.22,3,6.29,4.47,9.46,3.2,5.91,4.81,12.46,7.07,18.81,4.4,15.22,3.56,31.86-.18,47.1-.55,2.38-1.77,4.57-2.05,7-.14.71-.81,1.16-.7,2-1.47,4.29-3.59,8.46-5.28,12.72-1.24,2.8-1.63,5.86-3.17,8.48,0,.54.28,1.23-.53,1.51a16.39,16.39,0,0,1-1.16,3.37c-.37.62-.17,1.45-.66,2-.19.29-.56.5-.35.94a.17.17,0,0,1,0,.17c-1,.57-1.23,1.67-1.76,2.55-1.32,2-3.51,6.17-5.83,6.48a11.9,11.9,0,0,1-6.09,2,16,16,0,0,1-5.11-1c-1.13-.07-1.42-1.35-2.3-1.89-.6-.41-.62-1.2-.84-1.84A11,11,0,0,1,240,267.62Z"/><path class="cls-1" d="M149.29,253.63c-9,.32-16.34-11.29-18.42-19.08a26.81,26.81,0,0,1-1.63-9.8,60.39,60.39,0,0,1-.81-8.31,73.31,73.31,0,0,1,0-9.49c-.54-2.18-.06-4.43-.57-6.58a1.25,1.25,0,0,1-.13-1.29c-.34-2.16-.25-4.54-.82-6.72a1.55,1.55,0,0,1,.1-1.5c.47-.78-.4-1.53-.23-2.36,0-.52.3-1.05-.11-1.59s.27-1.08-.2-1.57c0-.28.23-.86.08-1.13-.62-1.75.17-3.58-.49-5.36a3.42,3.42,0,0,1,0-2c.4-1.6-.52-3.33-.21-5a8.91,8.91,0,0,0-.31-2.19c.55-1.93,0-4.13.15-6a44,44,0,0,0,.7-7.44,46.19,46.19,0,0,1,6.25-12.72c3.19-4,7.9-6.81,13.07-6.36-5,4.5-5.59,4.93-7.89,11.69-.3.84,0,1.85-.55,2.65a30.54,30.54,0,0,0-.2,3.6,5.71,5.71,0,0,0-.38,3.26c-.56,12,5.5,22.66,10.11,33.27.25,1.15,1.16,2,1.28,3.2.17.57,1,.64,1.1,1.16,1,2.6,2.57,4.76,3.46,7.38.19.61.93.86.65,1.62a125.34,125.34,0,0,1,9.07,29.15c.14.49-.24,1,0,1.45.63,1.23.09,2.59.39,3.84-.5,2-.67,4.36-1.49,6.44C158.65,250.91,154.88,252.92,149.29,253.63Z"/><path class="cls-1" d="M146.08,147.88c4.58-.34,7.87,4.9,10.2,8.19,1.19,2.17,3.55,3.07,5.13,4.86a5.78,5.78,0,0,0,1.71,1.13c7.57,2.61,15.35-2.13,20.88-7a50.75,50.75,0,0,0,15-22.73c0-1.3,1.11-2.28,1.31-3.48-.13-.62.63-.91.54-1.53a1.81,1.81,0,0,1,.44-1.45,10.55,10.55,0,0,0,1-4.3c.54-1.38.9-2.89,1.39-4.32.62-2.22.69-4.62,1.24-6.88a4.81,4.81,0,0,1,.32-2.94c.25-.65-.16-1.36.32-1.94a.87.87,0,0,0,.14-.55c0-.93.65-2.87,1.7-2.63,3,2,1.62,12,1.9,15.63.12,1.22-.94,2.41-.2,3.6-.17,9.46-2.48,19-5.59,28a58.77,58.77,0,0,1-4.64,12.25c-.7.73-.61,1.82-1.16,2.63a6.66,6.66,0,0,0-1.28,2.53c-1.35,1.54-2.36,3.72-3.54,5.47-1.37,1.2-2.21,3-3.39,4.24-.71,0-.88.6-1.14,1-1.09,1.52-2.8,2.55-4.17,3.8-.24,1-1.32,1.09-2,1.62a21.31,21.31,0,0,1-8,3.39c-5.1,1.27-10.26-.3-15.23-1.49a5.62,5.62,0,0,1-2.07-.68c-.17-.48-.41-.73-.95-.52-1.07-.52-1.94-1.73-3.24-2.06-.83-.37-.95-1.51-1.78-1.88-1.66-1.24-2.34-3.33-4-4.61-.61-.29-.45-1.16-.91-1.56-1.64-1.49-2.19-3.69-3.55-5.39-2.17-4.71-4.15-10.46-2.54-15.67C141.34,150.16,142.83,148,146.08,147.88Z"/><path class="cls-1" d="M266.18,142.45c3.11,4,8.5,4.48,12.92,2.53,1.5-.25,2.66-1.29,3.91-2,.57-.25.39-1.09,1.06-1.3a10.36,10.36,0,0,0,3.18-6.45c1-1.56.11-3.46.82-5.07a.42.42,0,0,0,0-.38c-.49-.62-.29-1.35-.29-2,0-1.74-.38-3.44-.49-5.19a2.54,2.54,0,0,0-.43-2,22.11,22.11,0,0,0-2.18-7.73c-.88-2.9-2.82-5.37-4.44-7.92-2.32-3.62-4.86-7.48-8.39-10-1.44-1.42-2.77-3.08-4.52-4.07-1-.62-2.28-.88-3-1.91a1.61,1.61,0,0,0-1-.58c-.8,0-1.32-1-2.13-.67-.37-.58-1.1-.36-1.54-.73-.91-.77-2.05-.56-3.08-.69-3.11-.5-6,.5-9.05,1-.36.79-1.38.72-1.84,1.46-.95,1.51-2.81,2.68-2.58,4.72-.75,3.27,1.14,6.94,3.13,9.54,1,1.79,2.68,3.1,4,4.73.81.72,1.22,1.79,2.36,2.13,1.52,1.38,3.51,2.2,5.16,3.49,2,1.77,3.16-5,8.25,0,1.73,3.44,2.59,8-2.42,8.91a4.31,4.31,0,0,1-3.61-.36c-.45-.83-1.38-1.3-1.66-2.25-.57-1-.41-2.56-1.5-3-8.28-3.51-18.12-10.73-19-20.21-1.6-6.12.92-10.19,5.92-13.55a20.5,20.5,0,0,1,6.93-1.92c2.61-.63,5.16.67,7.77.59,1.64,1.21,4.06.9,5.56,2.56.94.87,2.69.39,3.42,1.54,10.53,7,19.67,17,23.43,29.36,3.3,11.6,4,22.8-4.24,32.7-1.35.25-2.2,1.42-3.6,1.67a11.13,11.13,0,0,1-5.69,1.32C272.39,151,266.75,147.49,266.18,142.45Z"/><path class="cls-1" d="M165.07,295.41l-.1-.15.09.16Z"/><path class="cls-4" d="M142.47,188.25l-.1-.08h.06a.19.19,0,0,1,0,.08Z"/><path class="cls-4" d="M191.22,168.6l0-.07,0,.06Z"/><path class="cls-1" d="M121.22,87.22a.1.1,0,0,0-.07-.15C120.84,87,121.08,87.51,121.22,87.22Z"/><polygon class="cls-1" points="340.24 182.16 340.26 182.14 340.24 182.16 340.24 182.16"/><path class="cls-3" d="M292.21,280.15c-.12,0-.27-.06-.28-.19a.21.21,0,0,1,.23-.22c.14,0,.17.15.18.27Z"/><path class="cls-3" d="M121.22,87.22l-.11.12s-.1-.08-.11-.13,0-.16.15-.14A.1.1,0,0,1,121.22,87.22Z"/><path class="cls-4" d="M333.91,158.52c0-.09.11-.16.19,0s-.06.09-.09.14Z"/><path class="cls-4" d="M89.23,187.32c-.06.07-.12.15-.2,0s.06-.09.09-.14Z"/><path class="cls-4" d="M97.89,224.29s-.12.09-.14.08-.06-.14,0-.21A.8.8,0,0,0,97.89,224.29Z"/><path class="cls-3" d="M304.92,83.13c-.07.07-.14.12-.21,0s.06-.09.09-.14Z"/><path class="cls-1" d="M252.79,272.31a3.52,3.52,0,0,0,.45.06.94.94,0,0,0,.37-.11,13.9,13.9,0,0,0,4.37-3.84,47.28,47.28,0,0,0,3.08-5,73.35,73.35,0,0,0,4.54-10.56c.67-1.83,1.33-3.67,2-5.5.86-2.36,1.89-4.65,2.86-7,.49-1.2,1-2.38,1.48-3.61.59-1.62,1.09-3.28,1.77-4.87a22.09,22.09,0,0,0,1-3.37c.27-1.07.51-2.15.84-3.21a8.83,8.83,0,0,0,.52-2c.06-1,.42-1.83.56-2.76.18-1.23.54-2.42.7-3.65.28-2.11.6-4.21.88-6.31a33,33,0,0,0,.5-6.59,2.22,2.22,0,0,1,0-.68,14.16,14.16,0,0,0,0-3.38c0-.65-.08-1.3-.08-1.95a8.54,8.54,0,0,0,0-1.75c-.3-1.4-.18-2.86-.56-4.25a8.91,8.91,0,0,1-.22-1.45,32,32,0,0,0-1.52-6.78c-.21-.62-.53-1.21-.85-1.93a1.29,1.29,0,0,0,0,1.05c.33,1.43.95,2.76,1.23,4.22.38,2,.51,3.94.75,5.92a14.19,14.19,0,0,1,.22,2.51c-.09,1.52.09,3,0,4.55s.3,3.28.09,5c-.27,2.29-.21,4.64-.68,6.89-.38,1.82-.16,3.72-.92,5.46a28.17,28.17,0,0,1-.87,4.82c-.16.95-.62,1.87-.72,2.82a23.9,23.9,0,0,1-1.13,4.72c-.6,2-1.16,3.94-1.92,5.85-.35.85-.51,1.76-.92,2.58a4.77,4.77,0,0,0-.58,1.23,19.58,19.58,0,0,1-1.54,4c-1,2.32-1.94,4.67-2.84,7-.56,1.48-1.08,3-1.64,4.47-.45,1.19-1,2.35-1.4,3.54a24.32,24.32,0,0,1-1.46,3.3c-.67,1.27-1.46,2.47-2.13,3.74a17.2,17.2,0,0,1-5.36,5.73A2.28,2.28,0,0,0,252.79,272.31Zm22.29-91.26a.32.32,0,0,0,.19-.32.73.73,0,0,0-.33-.66.23.23,0,0,0-.18,0c-.26.26,0,.48.06.71A.33.33,0,0,0,275.08,181.05Z"/><path class="cls-1" d="M271.82,148.34c-.15-.21-.38-.18-.6-.19-.1-.4-.46-.47-.77-.59-.05-.09-.08-.1-.07,0l.08,0c.08.42.46.46.77.59.16.21.39.18.6.19.09.29.33.36.59.4a6.14,6.14,0,0,0,3.09,1.09,14.68,14.68,0,0,0,6.22-1.08,15.2,15.2,0,0,0,6.14-4.24,5,5,0,0,0,1-2.15l-.24,0-.17.24a12.57,12.57,0,0,1-5.54,5.21,15.32,15.32,0,0,1-5,1.46,8.5,8.5,0,0,1-3.88-.24,5.07,5.07,0,0,0-1.62-.32C272.38,148.36,272.08,148.38,271.82,148.34ZM257.47,82.63a3.38,3.38,0,0,0-1.37-.52,19.86,19.86,0,0,0-4.68-.2,3.42,3.42,0,0,0-1.07.09c-1.25.45-2.57.64-3.82,1.14A14.61,14.61,0,0,0,242,86a9.85,9.85,0,0,0-2.06,3.17A10,10,0,0,0,239.3,97c.06.17,0,.45.43.49a11.56,11.56,0,0,1-.38-3.53,11.24,11.24,0,0,1,2.06-6.41,9.88,9.88,0,0,1,3.39-2.76,16.32,16.32,0,0,1,8-2.31A38.39,38.39,0,0,1,257.47,82.63Zm8.43,35.77a3.56,3.56,0,0,0,.17-1.91,3.5,3.5,0,0,0-2.44-3c-.15,0-.43-.14-.45,0-.1.7-.63.41-1,.47a1.32,1.32,0,0,0-.93,2.27c.38.49,1,.49,1.57.67.06,0,.17-.07.25-.13a1.73,1.73,0,0,0,.39-2.67s0-.11.2-.22C265.27,114.8,265.49,116.53,265.9,118.4ZM270,147.15l-.05-.07s-.06,0-.06.06,0,.12.08.09S270,147.18,270,147.15Z"/><path class="cls-1" d="M165.07,295.41l-.1-.15.09.16Z"/><path class="cls-4" d="M235.82,181.58a4.24,4.24,0,0,1,.56,2.06c.18,2.15.29,4.31.46,6.46.12,1.46.28,2.91.46,4.36a8.07,8.07,0,0,1,.07,1c0,2,0,4,.16,6a19.67,19.67,0,0,1-.1,3.91,7.58,7.58,0,0,0-.05,1.17,30.77,30.77,0,0,1-.35,4.29c-.11.84,0,1.69-.22,2.53-.27,1.2-.1,2.46-.44,3.67a23.22,23.22,0,0,0-.23,2.5c-.15,1-.25,2-.39,3-.22,1.64-.47,3.28-.78,4.91s-.63,3.12-1.08,4.65c-.19.65-.28,1.34-.46,2a26.34,26.34,0,0,1-1.44,4.43c-.45,1-.66,2-1.13,3a34.64,34.64,0,0,1-2.55,4.68,18.74,18.74,0,0,1-2.74,3.12,15.93,15.93,0,0,1-4.66,2.74s-.08,0-.09,0c-.76,1-1.74.63-2.66.39a2.76,2.76,0,0,1-2-1.79,1.18,1.18,0,0,0-.24-.42,1.92,1.92,0,0,1-.48-1.43,1.59,1.59,0,0,0-.06-.58,2.23,2.23,0,0,1,.13-1.5,6.7,6.7,0,0,1,1.8-2.55c.34-.35.83-.41,1.14-.72.89-.86,2-.74,3.08-.84.35,0,.7-.13,1.06-.14a4.22,4.22,0,0,1,2.07.63c.82.44,1.08.37,1.41-.44a9.31,9.31,0,0,1,.89-1.38,8.65,8.65,0,0,0,.75-1.8,25.19,25.19,0,0,1,1.13-2.47,41,41,0,0,0,1.46-4.25c.49-1.48.83-3,1.18-4.51a26.29,26.29,0,0,0,1-4,7.1,7.1,0,0,1,.44-1.79,13.27,13.27,0,0,0,.53-2.47,22.06,22.06,0,0,0,.59-3.06c.06-1,.48-1.88.53-2.86a30.16,30.16,0,0,1,.66-4.24c.21-1.06.15-2.14.35-3.21.07-.41.09-.84.15-1.26a38,38,0,0,0,.61-6c0-.75.16-1.48.17-2.24,0-2.23-.24-4.44-.3-6.65,0-1.5-.17-3-.19-4.5A22.36,22.36,0,0,0,235.82,181.58Zm-4.45,56c.07-.55-.52,1.75-.89,2.59s-.46.92-1,2.09c-.5.81-1.6,2.56-2.11,3.31a29.29,29.29,0,0,1-2.57,2.87c-1.21,1.21-3.58,2.17-4.63,2.72-.14.13-.33.28-.12.48s.28-.18.4-.27a21.54,21.54,0,0,0,4.48-2.5,21.92,21.92,0,0,0,2.8-3.13,33.42,33.42,0,0,0,2.64-4.66A17.11,17.11,0,0,0,231.37,237.61Z"/><path class="cls-4" d="M252.79,272.31a2.28,2.28,0,0,1,.92-1,17.2,17.2,0,0,0,5.36-5.73c.67-1.27,1.46-2.47,2.13-3.74a24.32,24.32,0,0,0,1.46-3.3c.43-1.19.95-2.35,1.4-3.54.56-1.48,1.08-3,1.64-4.47.9-2.37,1.82-4.72,2.84-7a19.58,19.58,0,0,0,1.54-4,4.77,4.77,0,0,1,.58-1.23c.41-.82.57-1.73.92-2.58.76-1.91,1.32-3.89,1.92-5.85a23.9,23.9,0,0,0,1.13-4.72c.1-1,.56-1.87.72-2.82a28.17,28.17,0,0,0,.87-4.82c.76-1.74.54-3.64.92-5.46.47-2.25.41-4.6.68-6.89.21-1.68-.14-3.31-.09-5s-.13-3,0-4.55a14.19,14.19,0,0,0-.22-2.51c-.24-2-.37-4-.75-5.92-.28-1.46-.9-2.79-1.23-4.22a1.29,1.29,0,0,1,0-1.05c.32.72.64,1.31.85,1.93a32,32,0,0,1,1.52,6.78,8.91,8.91,0,0,0,.22,1.45c.38,1.39.26,2.85.56,4.25a8.54,8.54,0,0,1,0,1.75c0,.65.05,1.3.08,1.95a14.16,14.16,0,0,1,0,3.38,2.22,2.22,0,0,0,0,.68,33,33,0,0,1-.5,6.59c-.28,2.1-.6,4.2-.88,6.31-.16,1.23-.52,2.42-.7,3.65-.14.93-.5,1.8-.56,2.76a8.83,8.83,0,0,1-.52,2c-.33,1.06-.57,2.14-.84,3.21a22.09,22.09,0,0,1-1,3.37c-.68,1.59-1.18,3.25-1.77,4.87-.44,1.23-1,2.41-1.48,3.61-1,2.32-2,4.61-2.86,7-.67,1.83-1.33,3.67-2,5.5a73.35,73.35,0,0,1-4.54,10.56,47.28,47.28,0,0,1-3.08,5,13.9,13.9,0,0,1-4.37,3.84.94.94,0,0,1-.37.11A3.52,3.52,0,0,1,252.79,272.31Z"/><path class="cls-4" d="M275.08,181.05a.33.33,0,0,1-.26-.26c0-.23-.32-.45-.06-.71a.23.23,0,0,1,.18,0,.73.73,0,0,1,.33.66A.32.32,0,0,1,275.08,181.05Z"/><path class="cls-4" d="M142.45,188.26c3.48,5.18,5.71,11.1,8.49,16.68,2.36,5.36,4.86,10.7,6.36,16.4a91.59,91.59,0,0,1,2.63,13c0,.88.53,1.77.35,2.68a24.14,24.14,0,0,0,0,3.4,19.26,19.26,0,0,1-1,4.56c-1,3.17-3.75,6.14-7.15,6.57a11.18,11.18,0,0,1-11.8-5.14c-.81-1.3-1.42-2.71-2.15-4.06a.87.87,0,0,1-.13-.87,1.5,1.5,0,0,1,.6.85,13.38,13.38,0,0,0,4,5.08c2.52,2.07,7.47,2.72,9.07-.73a49.82,49.82,0,0,0,3.15-9.66,8.89,8.89,0,0,0,.51-2c.09-.68-.13-1.42,0-2,.31-.87,0-1.7.21-2.53.09-.43.3-.88-.08-1.3a.38.38,0,0,1-.06-.28c.25-3.5-.61-7-1.37-10.33a32.28,32.28,0,0,0-2.16-6.67c-1-2.6-1.78-5.25-2.89-7.79-1.68-3.63-3-7.41-4.75-11-.56-1.6-1.75-3.08-1.83-4.79Zm16.3,50.59a1.51,1.51,0,0,0-.34.86,15.71,15.71,0,0,1-2.65,7c-1,1.32-2,2.76-3.5,3.54-.2.12-.47.16-.62.49C156.85,249.41,158.86,243.82,158.75,238.85Z"/><path class="cls-4" d="M136.87,240.3c-.23-.09-.58-.08-.59-.47a.54.54,0,0,1,.56-.61.52.52,0,0,1,.49.59C137.33,240.11,137.24,240.32,136.87,240.3Z"/><path class="cls-4" d="M142.47,188.25l-.1-.08h.06a.19.19,0,0,1,0,.08Z"/><path class="cls-4" d="M191.21,168.59c-.58,2.14-2.26,3.74-3.51,5.52a13.78,13.78,0,0,1-4.15,3.86,4.73,4.73,0,0,1-2.16,1.6,14.4,14.4,0,0,1-3.88,1.89c-1.27.29-2.46.87-3.75,1.1-1.77.32-3.56.08-5.34.29a1,1,0,0,1-.39,0,19.07,19.07,0,0,0-3.76-.56c-2-.57-4-1.26-5.9-2a11.78,11.78,0,0,1-1.88-1.21c-1.32-.88-2.72-1.63-4-2.64a46.62,46.62,0,0,1-4.79-5.62,8,8,0,0,0-.93-1.38.86.86,0,0,1-.18-.91c1.86.93,3,3.58,4.88,4.68a4,4,0,0,1,1.06.94c.9,1,2.12,1.46,3.16,2.3,1.15,1,2.64,1.35,3.95,2a6.7,6.7,0,0,0,1.92.82c1.34.25,2.61.79,4,.92a13.74,13.74,0,0,1,3.11.51c.21.07.37-.08.56-.11s.55-.31.78.07a.33.33,0,0,0,.28.05c1-.37,2.15-.11,3.14-.43.63-.2,1.36-.07,1.91-.53.12-.1.24,0,.37,0a3.55,3.55,0,0,0,2.38-.64,2,2,0,0,1,1-.32,3.69,3.69,0,0,0,1.7-.7,6.85,6.85,0,0,0,1.78-1.33c1-1.16,2.63-1.31,3.52-2.55,1.71-1.86,3.18-4,5.11-5.62Z"/><path class="cls-4" d="M146.16,167.19c-.06.19,0,.48-.3.51a.85.85,0,0,1-.81-.8c0-.32.12-.59.49-.59S146.16,166.78,146.16,167.19Z"/><path class="cls-4" d="M191.22,168.6l0-.07,0,.06Z"/><path class="cls-4" d="M257.47,82.63a38.39,38.39,0,0,0-4.68-.16,16.32,16.32,0,0,0-8,2.31,9.88,9.88,0,0,0-3.39,2.76A11.24,11.24,0,0,0,239.35,94a11.56,11.56,0,0,0,.38,3.53c-.39,0-.37-.32-.43-.49a10,10,0,0,1,.59-7.86A9.85,9.85,0,0,1,242,86a14.61,14.61,0,0,1,4.58-2.82c1.25-.5,2.57-.69,3.82-1.14a3.42,3.42,0,0,1,1.07-.09,19.86,19.86,0,0,1,4.68.2A3.38,3.38,0,0,1,257.47,82.63Z"/><path class="cls-4" d="M265.9,118.4c-.41-1.87-.63-3.6-2.24-4.54-.21.11-.24.17-.2.22a1.73,1.73,0,0,1-.39,2.67c-.08.06-.19.15-.25.13-.54-.18-1.19-.18-1.57-.67a1.32,1.32,0,0,1,.93-2.27c.37-.06.9.23,1-.47,0-.12.3,0,.45,0a3.5,3.5,0,0,1,2.44,3A3.56,3.56,0,0,1,265.9,118.4Z"/><path class="cls-4" d="M272.41,148.74a5.07,5.07,0,0,1,1.62.32,8.5,8.5,0,0,0,3.88.24,15.32,15.32,0,0,0,5-1.46,12.57,12.57,0,0,0,5.54-5.21l.17-.24.24,0a5,5,0,0,1-1,2.15,15.2,15.2,0,0,1-6.14,4.24,14.68,14.68,0,0,1-6.22,1.08,6.14,6.14,0,0,1-3.09-1.09Z"/><path class="cls-4" d="M271.23,148.14c-.31-.13-.69-.17-.77-.59h0c.31.12.67.19.77.59Z"/><path class="cls-4" d="M271.82,148.34c.26,0,.56,0,.59.4h0c-.26,0-.5-.11-.59-.4Z"/><path class="cls-4" d="M271.22,148.15c.22,0,.45,0,.6.19h0c-.21,0-.44,0-.6-.19Z"/><path class="cls-4" d="M270,147.15s0,.07,0,.08-.09,0-.08-.09,0,0,.06-.06Z"/><path class="cls-4" d="M270.46,147.55l-.08,0c0-.06,0-.05.07,0Z"/></g></svg>